<svg id="check-mark" xmlns="http://www.w3.org/2000/svg" width="85.185" height="85.185" viewBox="0 0 85.185 85.185">
  <g id="Group_155" data-name="Group 155">
    <path id="Path_245" data-name="Path 245" d="M72.708,72.708a42.59,42.59,0,1,0-60.232,0A42.585,42.585,0,0,0,72.708,72.708ZM29.087,37.851,36.9,45.661S53.643,29.335,55.816,26.775s3.465-.72,3.465-.72L64.33,31.3s1.268,1.056.211,1.965-20.2,19.822-20.2,19.822-3.853,3.86-5.729,5.751a2.072,2.072,0,0,1-3.32,0l-5.813-5.751s-7.886-8.01-8.8-8.835a.987.987,0,0,1,0-1.575l5.91-5.678A1.993,1.993,0,0,1,29.087,37.851Z" fill="#f4f6ff"/>
  </g>
</svg>
