<svg id="cross-mark-on-a-black-circle-background" xmlns="http://www.w3.org/2000/svg" width="85.19" height="85.19" viewBox="0 0 85.19 85.19">
  <path id="Path_246" data-name="Path 246" d="M79.479,21.214a42.416,42.416,0,0,0-15.5-15.5A41.666,41.666,0,0,0,42.6,0,41.665,41.665,0,0,0,21.215,5.713a42.405,42.405,0,0,0-15.5,15.5A41.664,41.664,0,0,0,0,42.6,41.673,41.673,0,0,0,5.713,63.976a42.416,42.416,0,0,0,15.5,15.5A41.67,41.67,0,0,0,42.6,85.19a41.67,41.67,0,0,0,21.381-5.713,42.405,42.405,0,0,0,15.5-15.5A41.672,41.672,0,0,0,85.19,42.595,41.674,41.674,0,0,0,79.479,21.214ZM62.673,52.633a3.413,3.413,0,0,1,1.054,2.5,3.473,3.473,0,0,1-1.054,2.55l-4.991,4.993a3.476,3.476,0,0,1-2.552,1.053,3.411,3.411,0,0,1-2.5-1.053L42.6,52.633,32.557,62.673a3.412,3.412,0,0,1-2.5,1.053,3.477,3.477,0,0,1-2.551-1.053L22.518,57.68a3.473,3.473,0,0,1-1.054-2.55,3.414,3.414,0,0,1,1.054-2.5L32.557,42.595,22.518,32.556a3.41,3.41,0,0,1-1.054-2.5,3.476,3.476,0,0,1,1.054-2.551l4.992-4.991a3.475,3.475,0,0,1,2.551-1.054,3.412,3.412,0,0,1,2.5,1.054L42.6,32.556,52.634,22.518a3.409,3.409,0,0,1,2.5-1.054,3.475,3.475,0,0,1,2.552,1.054l4.991,4.991a3.475,3.475,0,0,1,1.054,2.551,3.41,3.41,0,0,1-1.054,2.5L52.634,42.595Z" transform="translate(0 0)" fill="#f4f6ff"/>
</svg>
