<svg xmlns="http://www.w3.org/2000/svg" width="57.527" height="73.491" viewBox="0 0 57.527 73.491">
  <g id="shopping-bag" transform="translate(0)">
    <g id="Group_46" data-name="Group 46" transform="translate(0)">
      <path id="Path_219" data-name="Path 219" d="M89.865,20.051a.546.546,0,0,0-.521-.531H79.93V16.65C79.93,7.469,73.126,0,64.764,0S49.6,7.469,49.6,16.65v2.871H40.184a.546.546,0,0,0-.521.531L36,72.873a.607.607,0,0,0,.138.433.5.5,0,0,0,.383.184H93a.5.5,0,0,0,.383-.184.61.61,0,0,0,.138-.433Zm-36.084-3.4c0-6.648,4.926-12.057,10.982-12.057S75.746,10,75.746,16.65v2.871H53.782ZM51.69,35.6a5.509,5.509,0,0,1-5.23-5.741A5.461,5.461,0,0,1,49.6,24.594v5.262a2.1,2.1,0,1,0,4.184,0V24.6a5.474,5.474,0,0,1,3.138,5.259A5.509,5.509,0,0,1,51.69,35.6Zm26.149,0a5.509,5.509,0,0,1-5.23-5.741,5.461,5.461,0,0,1,3.138-5.262v5.262a2.1,2.1,0,1,0,4.184,0V24.6a5.474,5.474,0,0,1,3.138,5.259A5.509,5.509,0,0,1,77.838,35.6Z" transform="translate(-36.001)" fill="#f4f6ff"/>
    </g>
  </g>
</svg>
