<svg xmlns="http://www.w3.org/2000/svg" width="63.405" height="78.488" viewBox="0 0 63.405 78.488">
  <g id="tv" transform="translate(0 0)">
    <g id="Group_33" data-name="Group 33" transform="translate(0 0)">
      <g id="Group_32" data-name="Group 32" transform="translate(0)">
        <path id="Path_209" data-name="Path 209" d="M98.037,14.48h5.55L94.692,1.8a1.858,1.858,0,0,0-2.965-.284,3.139,3.139,0,0,0-.228,3.69Z" transform="translate(-73.709 -0.903)" fill="#f4f6ff"/>
        <path id="Path_210" data-name="Path 210" d="M188.171,27.468a3.028,3.028,0,0,0,0-3.69,1.8,1.8,0,0,0-2.965,0L179.2,31.253h5.854Z" transform="translate(-145.141 -17.77)" fill="#f4f6ff"/>
        <path id="Path_211" data-name="Path 211" d="M58.691,70.3H4.714C2.129,70.3,0,72.946,0,76.164V118.27c0,3.217,2.129,5.867,4.714,5.867H58.691c2.585,0,4.714-2.649,4.714-5.867V76.164C63.4,72.946,61.276,70.3,58.691,70.3ZM44.779,111.836c0,2.271-1.444,4.069-3.269,4.069H10.263c-1.825,0-3.269-1.8-3.269-4.069V82.692c0-2.271,1.444-4.069,3.269-4.069H41.509c1.825,0,3.269,1.8,3.269,4.069Zm13.456-9.084a.778.778,0,0,1-.684.852H50.708a.778.778,0,0,1-.684-.852V96.318a.778.778,0,0,1,.684-.852h6.842a.778.778,0,0,1,.684.852Zm0-13.626a.779.779,0,0,1-.684.852H50.708a.779.779,0,0,1-.684-.852V82.692a.778.778,0,0,1,.684-.852h6.842a.778.778,0,0,1,.684.852Z" transform="translate(0 -53.881)" fill="#f4f6ff"/>
        <path id="Path_212" data-name="Path 212" d="M24.8,312.263c0,1.7,1.064,3.028,2.433,3.028h2.433c1.368,0,2.433-1.325,2.433-3.028V309.9H24.8Z" transform="translate(-20.086 -236.803)" fill="#f4f6ff"/>
        <path id="Path_213" data-name="Path 213" d="M270.4,312.263h0c0,1.7,1.064,3.028,2.433,3.028h2.433c1.368,0,2.433-1.325,2.433-3.028V309.9h-7.3Z" transform="translate(-219.007 -236.803)" fill="#f4f6ff"/>
      </g>
    </g>
  </g>
</svg>
