<svg id="hamburger" xmlns="http://www.w3.org/2000/svg" width="64.432" height="69.286" viewBox="0 0 64.432 69.286">
  <path id="Path_202" data-name="Path 202" d="M43.584,0H25.531C13.973,0,4.365,9.146,2.648,21.058a1.3,1.3,0,0,0,1.213,1.528H65.254a1.3,1.3,0,0,0,1.213-1.528C64.75,9.146,55.142,0,43.584,0ZM26.491,8.627a2.036,2.036,0,0,1-3.025,0,2.422,2.422,0,0,1,0-3.251,2.036,2.036,0,0,1,3.025,0A2.421,2.421,0,0,1,26.491,8.627Zm9.627,7.935a2.036,2.036,0,0,1-3.025,0,2.422,2.422,0,0,1,0-3.251,2.036,2.036,0,0,1,3.025,0A2.422,2.422,0,0,1,36.118,16.561Zm9.627-7.935a2.036,2.036,0,0,1-3.025,0,2.422,2.422,0,0,1,0-3.251,2.036,2.036,0,0,1,3.025,0A2.422,2.422,0,0,1,45.745,8.627Z" transform="translate(-2.323)" fill="#f4f6ff"/>
  <path id="Path_203" data-name="Path 203" d="M26.727,363.2V367.9H83.9V363.2H44.89a7.647,7.647,0,0,1-10.232,0Z" transform="translate(-23.384 -314.057)" fill="#f4f6ff"/>
  <path id="Path_204" data-name="Path 204" d="M16.466,442.815H56.56A12.376,12.376,0,0,0,68.2,433.7a1.309,1.309,0,0,0-1.168-1.729H5.994A1.308,1.308,0,0,0,4.826,433.7a12.377,12.377,0,0,0,11.64,9.112Z" transform="translate(-4.188 -373.529)" fill="#f4f6ff"/>
  <path id="Path_205" data-name="Path 205" d="M27.3,205.263h3.684a5.16,5.16,0,0,1,4.957,5.3l.022,5.593a3.965,3.965,0,0,0,3.808,4.075,3.655,3.655,0,0,0,2.7-1.2,4.225,4.225,0,0,0,1.11-2.9l-.021-5.514A5.5,5.5,0,0,1,45,206.831a4.758,4.758,0,0,1,3.512-1.568H83.9c.036,0,.072,0,.108,0v-4.354H26.727v4.375c.189-.014.378-.024.57-.024Z" transform="translate(-23.384 -173.729)" fill="#f4f6ff"/>
  <path id="Path_206" data-name="Path 206" d="M228.893,275.462a4.216,4.216,0,0,0,0-8.411H193.5a.654.654,0,0,0-.481.215.752.752,0,0,0-.2.517l.021,5.514a9.371,9.371,0,0,1-.243,2.165Z" transform="translate(-168.374 -230.92)" fill="#f4f6ff"/>
  <path id="Path_207" data-name="Path 207" d="M8.719,275.462a9.264,9.264,0,0,1-.246-2.092l-.022-5.593a.706.706,0,0,0-.678-.726H4.089a4.216,4.216,0,0,0,0,8.411Z" transform="translate(-0.176 -230.92)" fill="#f4f6ff"/>
</svg>
