<svg id="medical-kit" xmlns="http://www.w3.org/2000/svg" width="75.083" height="59.87" viewBox="0 0 75.083 59.87">
  <g id="Group_34" data-name="Group 34" transform="translate(0 0)">
    <path id="Path_214" data-name="Path 214" d="M2.765,112.2A8.122,8.122,0,0,0,0,118.363v32.43a8.122,8.122,0,0,0,2.765,6.159,9.381,9.381,0,0,0,6.62,2.573h1.341V109.632H9.385A9.38,9.38,0,0,0,2.765,112.2Z" transform="translate(0 -99.654)" fill="#f4f6ff"/>
    <path id="Path_215" data-name="Path 215" d="M139.382,40.288a3.485,3.485,0,0,0-1.173-2.65,4.029,4.029,0,0,0-2.849-1.091H111.226a4.031,4.031,0,0,0-2.849,1.091,3.485,3.485,0,0,0-1.173,2.65v6.236h-6.7V96.416h45.585V46.524h-6.7V40.288Zm-26.815,1.247h21.452v4.989H112.567Zm26.815,33.677a1.172,1.172,0,0,1-.377.9,1.361,1.361,0,0,1-.963.35h-9.385v8.731a1.171,1.171,0,0,1-.378.9,1.355,1.355,0,0,1-.963.35h-8.045a1.359,1.359,0,0,1-.964-.35,1.17,1.17,0,0,1-.377-.9V76.46h-9.385a1.362,1.362,0,0,1-.964-.35,1.171,1.171,0,0,1-.377-.9V67.729a1.17,1.17,0,0,1,.377-.9,1.359,1.359,0,0,1,.963-.35h9.385V57.75a1.17,1.17,0,0,1,.377-.9,1.358,1.358,0,0,1,.964-.351h8.045a1.356,1.356,0,0,1,.963.351,1.172,1.172,0,0,1,.378.9v8.731h9.385a1.359,1.359,0,0,1,.963.35,1.172,1.172,0,0,1,.376.9v7.484h0Z" transform="translate(-85.751 -36.546)" fill="#f4f6ff"/>
    <path id="Path_216" data-name="Path 216" d="M446.5,112.2a9.382,9.382,0,0,0-6.62-2.573h-1.341v49.892h1.341a9.38,9.38,0,0,0,6.62-2.573,8.124,8.124,0,0,0,2.765-6.159v-32.43A8.125,8.125,0,0,0,446.5,112.2Z" transform="translate(-374.18 -99.654)" fill="#f4f6ff"/>
  </g>
</svg>
