<svg xmlns="http://www.w3.org/2000/svg" width="85.695" height="71.634" viewBox="0 0 85.695 71.634">
  <g id="sofa" transform="translate(0 0)">
    <g id="Group_60" data-name="Group 60" transform="translate(0 0)">
      <g id="Group_59" data-name="Group 59" transform="translate(0 0)">
        <path id="Path_224" data-name="Path 224" d="M70.129,85.112a23.7,23.7,0,0,1,2.281,5.158,56.7,56.7,0,0,1,2.12,14.646h40.8a56.831,56.831,0,0,1,2.122-14.648,23.6,23.6,0,0,1,2.277-5.151,20.058,20.058,0,0,1,4.578-5.2,21.032,21.032,0,0,1,2.005-1.465c-4.686-11.806-17-19.753-31.382-19.753A32.782,32.782,0,0,0,64.4,79.035c.4.289.777.585,1.148.883A20.244,20.244,0,0,1,70.129,85.112Z" transform="translate(-52.085 -58.7)" fill="#f4f6ff"/>
        <path id="Path_225" data-name="Path 225" d="M84.168,166.057a5.618,5.618,0,0,0-3.07-1.685,6.506,6.506,0,0,0-3.189,0,8.477,8.477,0,0,0-3.346,1.946A15.648,15.648,0,0,0,71,170.362,19.387,19.387,0,0,0,69.2,174.45c-1.675,5.227-1.92,11.891-1.922,15.394a2.188,2.188,0,0,1-2.04,2.311h-44.8a2.188,2.188,0,0,1-2.04-2.311c0-3.505-.257-10.167-1.916-15.394a19.53,19.53,0,0,0-1.8-4.092,15.7,15.7,0,0,0-3.57-4.044,8.48,8.48,0,0,0-3.35-1.948,6.434,6.434,0,0,0-3.185,0,5.634,5.634,0,0,0-3.074,1.687A6.894,6.894,0,0,0,.05,171a6.218,6.218,0,0,0,4.521,5.024,3.423,3.423,0,0,0,1.756-.044,3.77,3.77,0,0,1,2.727.2c3.4,1.742,3.776,8.351,1.265,22.763,1.283,4.27,2.9,4.6,4.123,4.763H18.4v6.932a2.188,2.188,0,0,0,2.04,2.311h2.04a2.188,2.188,0,0,0,2.04-2.311v-6.925H61.172v6.932a2.188,2.188,0,0,0,2.04,2.311h2.04a2.188,2.188,0,0,0,2.04-2.311v-6.932H71.25c1.224-.16,2.84-.492,4.123-4.763-2.511-14.41-2.14-21.028,1.265-22.763a3.763,3.763,0,0,1,2.73-.2,3.5,3.5,0,0,0,1.759.042,6.213,6.213,0,0,0,4.521-5.021A6.911,6.911,0,0,0,84.168,166.057Z" transform="translate(0.001 -141.317)" fill="#f4f6ff"/>
      </g>
    </g>
  </g>
</svg>
