<svg xmlns="http://www.w3.org/2000/svg" width="85.686" height="71.798" viewBox="0 0 85.686 71.798">
  <g id="home" transform="translate(0 0)">
    <g id="Group_43" data-name="Group 43" transform="translate(0)">
      <path id="Path_217" data-name="Path 217" d="M96.311,120.939l-30.56,26.526a.8.8,0,0,1-.027.168.8.8,0,0,0-.027.167V174.66a3.532,3.532,0,0,0,1.01,2.518,3.194,3.194,0,0,0,2.392,1.064H89.508V156.754h13.607v21.49h20.408a3.188,3.188,0,0,0,2.392-1.065,3.531,3.531,0,0,0,1.011-2.518V147.8a.824.824,0,0,0-.054-.335Z" transform="translate(-53.468 -106.446)" fill="#f4f6ff"/>
      <path id="Path_218" data-name="Path 218" d="M85.094,81.97,73.456,71.785V48.953a1.791,1.791,0,0,0-.479-1.287,1.607,1.607,0,0,0-1.222-.5h-10.2a1.614,1.614,0,0,0-1.223.5,1.8,1.8,0,0,0-.478,1.287V59.865L46.882,48.449a6.333,6.333,0,0,0-8.078,0L.59,81.97a1.654,1.654,0,0,0-.585,1.2,1.879,1.879,0,0,0,.372,1.316l3.3,4.141a1.786,1.786,0,0,0,1.116.616,1.9,1.9,0,0,0,1.276-.392l36.778-32.29,36.778,32.29a1.586,1.586,0,0,0,1.116.39h.16a1.788,1.788,0,0,0,1.116-.615l3.3-4.141a1.878,1.878,0,0,0,.371-1.316A1.66,1.66,0,0,0,85.094,81.97Z" transform="translate(0.001 -46.994)" fill="#f4f6ff"/>
    </g>
  </g>
</svg>
