<svg xmlns="http://www.w3.org/2000/svg" width="165" height="192" viewBox="0 0 165 192">
  <g id="Group_1" data-name="Group 1" transform="translate(-98 -252.5)">
    <path id="Polygon_1" data-name="Polygon 1" d="M131.922,0a21,21,0,0,1,18.151,10.439l35.782,61.5a21,21,0,0,1,0,21.122l-35.782,61.5A21,21,0,0,1,131.922,165H60.078a21,21,0,0,1-18.151-10.439L6.144,93.061a21,21,0,0,1,0-21.122l35.782-61.5A21,21,0,0,1,60.078,0Z" transform="translate(263 252.5) rotate(90)" fill="#f4f6ff"/>
    <path id="Path_1" data-name="Path 1" d="M205.776,129.548c-6.671,0-12.1-4.18-12.1-9.319s5.427-9.319,12.1-9.319,12.1,4.18,12.1,9.319c0,2.059,2.166,3.728,4.839,3.728s4.839-1.669,4.839-3.728c0-7.968-7.252-14.651-16.937-16.351v-4.15c0-2.059-2.166-3.728-4.839-3.728s-4.839,1.669-4.839,3.728v4.15c-9.685,1.7-16.937,8.384-16.937,16.351,0,9.249,9.768,16.774,21.776,16.774,6.671,0,12.1,4.18,12.1,9.319s-5.427,9.319-12.1,9.319-12.1-4.18-12.1-9.319c0-2.059-2.166-3.728-4.839-3.728S184,144.264,184,146.322c0,7.968,7.252,14.651,16.937,16.351v4.15c0,2.059,2.166,3.728,4.839,3.728s4.839-1.669,4.839-3.728v-4.15c9.685-1.7,16.937-8.384,16.937-16.351C227.551,137.073,217.783,129.548,205.776,129.548Z" transform="translate(-26 188.67)" fill="#8c35b1"/>
    <text id="Good_Wallet" data-name="Good Wallet" transform="translate(180 391)" fill="#8c35b1" font-size="17" font-family="Verdana-Bold, Verdana" font-weight="800"><tspan x="-55" y="0">GOOD WALLET</tspan></text>
  </g>
</svg>
