<svg enable-background="new 0 0 24 24" height="512" viewBox="0 0 24 24" width="512" xmlns="http://www.w3.org/2000/svg"><path d="m7.992 4.5h8.016l1.73-1.384c.589-.47.809-1.233.56-1.945s-.896-1.171-1.648-1.171h-9.3c-.752 0-1.399.46-1.648 1.171s-.029 1.475.559 1.944z"/><path d="m16.145 6h-8.29c-2.731 2.681-4.855 7.385-4.855 11.25 0 3.359 1.778 6.75 5.75 6.75h6.75c3.393 0 5.5-2.587 5.5-6.75 0-3.865-2.124-8.569-4.855-11.25zm-4.525 8.25h.76c1.169 0 2.12.951 2.12 2.12 0 1.051-.758 1.916-1.75 2.092v.787c0 .414-.336.75-.75.75s-.75-.336-.75-.75v-.749h-1c-.414 0-.75-.336-.75-.75s.336-.75.75-.75h2.13c.342 0 .62-.278.62-.62 0-.352-.278-.63-.62-.63h-.76c-1.169 0-2.12-.951-2.12-2.12 0-1.051.758-1.916 1.75-2.092v-.788c0-.414.336-.75.75-.75s.75.336.75.75v.75h1c.414 0 .75.336.75.75s-.336.75-.75.75h-2.13c-.342 0-.62.278-.62.62 0 .352.278.63.62.63z"/></svg>