<svg xmlns="http://www.w3.org/2000/svg" width="72.964" height="82.982" viewBox="0 0 72.964 82.982">
  <g id="Group_1" data-name="Group 1" transform="translate(-117.5 -138.5)">
    <path id="Polygon_1" data-name="Polygon 1" d="M50.02,0A21,21,0,0,1,68.275,10.619l8.8,15.482a21,21,0,0,1,0,20.761l-8.8,15.482A21,21,0,0,1,50.02,72.964H32.962A21,21,0,0,1,14.707,62.345L5.9,46.863A21,21,0,0,1,5.9,26.1l8.8-15.482A21,21,0,0,1,32.962,0Z" transform="translate(190.464 138.5) rotate(90)" fill="#f4f6ff"/>
    <path id="Path_1" data-name="Path 1" d="M196.1,114.65c-3.707,0-6.723-2.324-6.723-5.181s3.016-5.181,6.723-5.181,6.723,2.324,6.723,5.181c0,1.144,1.2,2.072,2.689,2.072s2.689-.928,2.689-2.072c0-4.43-4.03-8.145-9.413-9.09V98.072c0-1.144-1.2-2.072-2.689-2.072s-2.689.928-2.689,2.072v2.307c-5.382.945-9.413,4.661-9.413,9.09,0,5.142,5.429,9.325,12.1,9.325,3.707,0,6.723,2.324,6.723,5.181s-3.016,5.181-6.723,5.181-6.723-2.324-6.723-5.181c0-1.144-1.2-2.072-2.689-2.072s-2.689.928-2.689,2.072c0,4.43,4.03,8.145,9.413,9.09v2.307c0,1.144,1.2,2.072,2.689,2.072s2.689-.928,2.689-2.072v-2.307c5.382-.945,9.413-4.661,9.413-9.09C208.2,118.834,202.775,114.65,196.1,114.65Z" transform="translate(-42.173 62.247)" fill="#8c35b1"/>
  </g>
</svg>
