<svg xmlns="http://www.w3.org/2000/svg" width="20" height="20" viewBox="0 0 20 20">
  <g id="Iconly_Bold_Arrow_-_Right_Square" data-name="Iconly/Bold/Arrow - Right Square" transform="translate(-23 -88)">
    <g id="Arrow_-_Right_Square" data-name="Arrow - Right Square" transform="translate(2 2)">
      <path id="Arrow_-_Right_Square-2" data-name="Arrow - Right Square" d="M48.08,18H39.91C36.375,18,34,15.725,34,12.34V3.67C34,.279,36.375-2,39.91-2h8.17C51.621-2,54,.279,54,3.67v8.67C54,15.725,51.621,18,48.08,18Zm-8.7-8.75h0a.923.923,0,0,0-.211.64.923.923,0,0,0,.211.64l3.77,3.75a.755.755,0,0,0,1.059,0,.792.792,0,0,0,.22-.53.763.763,0,0,0-.22-.53L41.73,10.75H48.08A.742.742,0,0,0,48.83,10a.751.751,0,0,0-.751-.75h-8.7Zm.54-3A.751.751,0,0,0,39.17,7a.742.742,0,0,0,.751.75h8.7a.925.925,0,0,0,.211-.64.923.923,0,0,0-.211-.64L44.85,2.72a.754.754,0,0,0-1.059,0,.766.766,0,0,0,0,1.07L46.27,6.25Z" transform="translate(-13 88)" fill="#e1b152"/>
    </g>
  </g>
</svg>
