<svg xmlns="http://www.w3.org/2000/svg" width="65.23" height="78.296" viewBox="0 0 65.23 78.296">
  <g id="taxi" transform="translate(0 0)">
    <path id="Path_208" data-name="Path 208" d="M61.061,36.536,55.234,15.482c-.8-2.889-3.049-4.838-5.584-4.838h-9.4L38.2,3.266A3.933,3.933,0,0,0,34.6.143H30.633a3.933,3.933,0,0,0-3.606,3.123l-2.047,7.378h-9.4c-2.534,0-4.784,1.949-5.584,4.838L4.169,36.536A7.036,7.036,0,0,0,0,43.3V60.667c0,3.9,2.632,7.066,5.88,7.068v8.684a1.874,1.874,0,0,0,1.681,2.02h7.733a1.874,1.874,0,0,0,1.681-2.02V67.735H48.254v8.684a1.874,1.874,0,0,0,1.681,2.02h7.733a1.874,1.874,0,0,0,1.681-2.02V67.735c3.248,0,5.88-3.166,5.88-7.068V43.3A7.036,7.036,0,0,0,61.061,36.536ZM27.919,5.766H31.05V2H34.18V5.766h3.13V9.526H34.18V5.766H31.05V9.526H27.919ZM16.185,19.176H49.044L52.562,33.3H12.508ZM13.145,58.628c-3.091,0-5.6-3.01-5.6-6.723s2.506-6.724,5.6-6.724,5.6,3.01,5.6,6.724S16.236,58.628,13.145,58.628Zm38.941,0c-3.091,0-5.6-3.01-5.6-6.723s2.506-6.724,5.6-6.724,5.6,3.01,5.6,6.724S55.176,58.628,52.085,58.628Z" transform="translate(0 -0.143)" fill="#f4f6ff"/>
  </g>
</svg>
