<svg id="Iconly_Light-outline_Voice_2" data-name="Iconly/Light-outline/Voice 2" xmlns="http://www.w3.org/2000/svg" width="25.972" height="32.464" viewBox="0 0 25.972 32.464">
  <g id="Voice_2" data-name="Voice 2">
    <path id="Voice_2-2" data-name="Voice 2" d="M11.8,31.41l-.012-.167V27.83A13.168,13.168,0,0,1,0,14.606a1.208,1.208,0,0,1,1.2-1.221,1.208,1.208,0,0,1,1.194,1.221,10.718,10.718,0,0,0,10.6,10.837,10.72,10.72,0,0,0,10.6-10.837,1.195,1.195,0,1,1,2.389,0A13.169,13.169,0,0,1,14.18,27.83v3.413a1.193,1.193,0,0,1-2.377.167Zm.982-9.633a7.111,7.111,0,0,1-7.023-7.182V7.182A7.111,7.111,0,0,1,12.784,0h.4A7.112,7.112,0,0,1,20.21,7.182v7.413a7.112,7.112,0,0,1-7.024,7.182ZM8.15,7.182v7.413a4.693,4.693,0,0,0,4.634,4.739h.4a4.694,4.694,0,0,0,4.635-4.739v-.206H14.467a1.223,1.223,0,0,1-.162-2.431l.162-.012h3.354V9.223H15.984a1.223,1.223,0,0,1-.162-2.431l.162-.012h1.821a4.684,4.684,0,0,0-4.619-4.337h-.4A4.693,4.693,0,0,0,8.15,7.182Z" fill="#db8ea7"/>
  </g>
</svg>
